<svg width="950px" height="374px" viewBox="0 0 950 374" version="1.1" xmlns="http://www.w3.org/2000/svg" xmlns:xlink="http://www.w3.org/1999/xlink">
    <defs>
        <polygon id="path-1" points="0 373.7396 949.688 373.7396 949.688 -0.0004 0 -0.0004"></polygon>
    </defs>
    <g id="Page-1" stroke="none" stroke-width="1" fill="none" fill-rule="evenodd">
        <g>
            <path d="M276.0592,262.0832 L301.1512,195.5272 C308.4552,176.1672 308.5952,154.8352 301.5512,135.3752 L276.9712,67.4952 C268.3712,43.7352 245.8112,27.9072 220.5432,27.9072 C115.3712,27.9072 30.1152,113.1672 30.1152,218.3352 C30.1152,267.1472 68.7832,307.1752 117.5632,308.8512 C146.4832,309.8432 177.8112,310.7992 203.5232,311.2712 C235.6752,311.8672 264.7152,292.1712 276.0592,262.0832 Z" id="Stroke-1" stroke="#EF415E" stroke-width="13.108"></path>
            <path d="M235.7,327.79 L268,214.738 C281.012,169.206 276.068,120.414 254.196,78.414 C225.936,24.162 164.428,-3.958 104.908,10.182 C28.156,28.41 -5.228,118.954 41.316,182.646 L48.172,192.034 C61.484,210.25 73.712,229.234 84.784,248.894 L135.776,339.398 C159.508,381.526 222.256,374.234 235.7,327.79 Z" id="Stroke-3" stroke="#EFEFEF" stroke-width="13.108"></path>
            <path d="M286.2588,242.2548 L286.2588,242.2548 C291.1588,235.8268 292.5188,227.3668 289.8828,219.7228 L287.4308,149.2228 C284.5028,65.0548 200.1028,6.8748 121.2268,36.4028 C119.8908,36.9028 118.5788,37.4188 117.2988,37.9468 C92.0228,48.3268 71.1868,67.2308 58.4068,91.3748 L19.4148,165.0228 C2.6948,196.6068 2.2548,234.3228 18.2388,266.2868 L44.2388,318.2868 C55.9508,341.7108 81.5908,354.7268 107.4148,350.3588 L107.4148,350.3548 C178.5828,338.3148 242.5108,299.6708 286.2588,242.2548 Z" id="Stroke-5" stroke="#B8D9D2" stroke-width="13.108"></path>
            <path d="M151.8328,128.0752 C152.1928,131.3272 152.4648,134.9872 152.6448,139.0512 C152.8248,143.1152 152.9168,146.4992 152.9168,149.2112 L153.7288,149.2112 C155.3528,145.7832 157.5648,142.5712 160.3688,139.5912 C163.1648,136.6112 166.3728,133.9952 169.9888,131.7352 C173.5968,129.4792 177.5728,127.7152 181.9088,126.4512 C186.2448,125.1872 190.7568,124.5552 195.4568,124.5552 C203.7608,124.5552 210.9008,125.9552 216.8608,128.7552 C222.8248,131.5552 227.7888,135.3032 231.7648,139.9952 C235.7368,144.6952 238.6728,150.2032 240.5688,156.5272 C242.4688,162.8512 243.4168,169.6272 243.4168,176.8472 L243.4168,256.5072 L217.9448,256.5072 L217.9448,185.2472 C217.9448,180.0112 217.5408,175.0432 216.7248,170.3432 C215.9128,165.6512 214.4208,161.4952 212.2528,157.8792 C210.0888,154.2712 207.1088,151.3792 203.3128,149.2112 C199.5208,147.0432 194.6448,145.9592 188.6808,145.9592 C178.5648,145.9592 170.3008,149.7992 163.8888,157.4752 C157.4768,165.1552 154.2688,175.4032 154.2688,188.2272 L154.2688,256.5072 L128.8008,256.5072 L128.8008,155.7152 C128.8008,152.2872 128.7088,147.8552 128.5288,142.4392 C128.3488,137.0152 128.0768,132.2352 127.7168,128.0752 L151.8328,128.0752 Z" id="Fill-7" fill="#6D6E70"></path>
            <path d="M151.8328,128.0752 C152.1928,131.3272 152.4648,134.9872 152.6448,139.0512 C152.8248,143.1152 152.9168,146.4992 152.9168,149.2112 L153.7288,149.2112 C155.3528,145.7832 157.5648,142.5712 160.3688,139.5912 C163.1648,136.6112 166.3728,133.9952 169.9888,131.7352 C173.5968,129.4792 177.5728,127.7152 181.9088,126.4512 C186.2448,125.1872 190.7568,124.5552 195.4568,124.5552 C203.7608,124.5552 210.9008,125.9552 216.8608,128.7552 C222.8248,131.5552 227.7888,135.3032 231.7648,139.9952 C235.7368,144.6952 238.6728,150.2032 240.5688,156.5272 C242.4688,162.8512 243.4168,169.6272 243.4168,176.8472 L243.4168,256.5072 L217.9448,256.5072 L217.9448,185.2472 C217.9448,180.0112 217.5408,175.0432 216.7248,170.3432 C215.9128,165.6512 214.4208,161.4952 212.2528,157.8792 C210.0888,154.2712 207.1088,151.3792 203.3128,149.2112 C199.5208,147.0432 194.6448,145.9592 188.6808,145.9592 C178.5648,145.9592 170.3008,149.7992 163.8888,157.4752 C157.4768,165.1552 154.2688,175.4032 154.2688,188.2272 L154.2688,256.5072 L128.8008,256.5072 L128.8008,155.7152 C128.8008,152.2872 128.7088,147.8552 128.5288,142.4392 C128.3488,137.0152 128.0768,132.2352 127.7168,128.0752 L151.8328,128.0752 Z" id="Stroke-9" stroke="#6D6E70" stroke-width="2"></path>
            <path d="M380.5144,180.9112 C380.3344,175.8552 379.4744,171.1152 377.9384,166.6872 C376.4024,162.2632 374.1464,158.4232 371.1664,155.1712 C368.1864,151.9192 364.4824,149.3432 360.0584,147.4512 C355.6264,145.5512 350.4384,144.6072 344.4784,144.6072 C339.0584,144.6072 333.9504,145.5512 329.1704,147.4512 C324.3784,149.3432 320.2264,151.9192 316.7024,155.1712 C313.1824,158.4232 310.2904,162.2632 308.0344,166.6872 C305.7704,171.1152 304.4664,175.8552 304.1024,180.9112 L380.5144,180.9112 Z M406.5264,191.2072 L406.5264,195.5432 C406.5264,196.9952 406.4304,198.4352 406.2544,199.8792 L304.1024,199.8792 C304.2824,205.2632 305.5024,210.3312 307.7624,215.0832 C310.0184,219.8352 313.0464,223.9672 316.8424,227.4632 C320.6344,230.9592 325.0104,233.6912 329.9824,235.6632 C334.9464,237.6392 340.2304,238.6272 345.8344,238.6272 C354.5024,238.6272 361.9984,236.7272 368.3224,232.9352 C374.6424,229.1432 379.6064,224.5352 383.2224,219.1192 L401.1064,233.4792 C394.2384,242.5792 386.1584,249.2832 376.8544,253.5832 C367.5504,257.8792 357.2104,260.0312 345.8344,260.0312 C336.0784,260.0312 327.0424,258.4072 318.7384,255.1552 C310.4264,251.9032 303.2904,247.3432 297.3304,241.4712 C291.3704,235.6032 286.6704,228.5112 283.2424,220.1992 C279.8064,211.8952 278.0944,202.6792 278.0944,192.5632 C278.0944,182.6312 279.7664,173.4632 283.1144,165.0632 C286.4624,156.6632 291.1224,149.4832 297.0984,143.5192 C303.0704,137.5592 310.1344,132.9112 318.2784,129.5672 C326.4264,126.2272 335.2024,124.5552 344.6144,124.5552 C354.0264,124.5552 362.5824,126.0912 370.2744,129.1592 C377.9704,132.2352 384.4864,136.6592 389.8304,142.4392 C395.1664,148.2192 399.2864,155.2192 402.1824,163.4352 C405.0784,171.6592 406.5264,180.9112 406.5264,191.2072 L406.5264,191.2072 Z" id="Fill-11" fill="#6D6E70"></path>
            <path d="M380.5144,180.9112 C380.3344,175.8552 379.4744,171.1152 377.9384,166.6872 C376.4024,162.2632 374.1464,158.4232 371.1664,155.1712 C368.1864,151.9192 364.4824,149.3432 360.0584,147.4512 C355.6264,145.5512 350.4384,144.6072 344.4784,144.6072 C339.0584,144.6072 333.9504,145.5512 329.1704,147.4512 C324.3784,149.3432 320.2264,151.9192 316.7024,155.1712 C313.1824,158.4232 310.2904,162.2632 308.0344,166.6872 C305.7704,171.1152 304.4664,175.8552 304.1024,180.9112 L380.5144,180.9112 Z M406.5264,191.2072 L406.5264,195.5432 C406.5264,196.9952 406.4304,198.4352 406.2544,199.8792 L304.1024,199.8792 C304.2824,205.2632 305.5024,210.3312 307.7624,215.0832 C310.0184,219.8352 313.0464,223.9672 316.8424,227.4632 C320.6344,230.9592 325.0104,233.6912 329.9824,235.6632 C334.9464,237.6392 340.2304,238.6272 345.8344,238.6272 C354.5024,238.6272 361.9984,236.7272 368.3224,232.9352 C374.6424,229.1432 379.6064,224.5352 383.2224,219.1192 L401.1064,233.4792 C394.2384,242.5792 386.1584,249.2832 376.8544,253.5832 C367.5504,257.8792 357.2104,260.0312 345.8344,260.0312 C336.0784,260.0312 327.0424,258.4072 318.7384,255.1552 C310.4264,251.9032 303.2904,247.3432 297.3304,241.4712 C291.3704,235.6032 286.6704,228.5112 283.2424,220.1992 C279.8064,211.8952 278.0944,202.6792 278.0944,192.5632 C278.0944,182.6312 279.7664,173.4632 283.1144,165.0632 C286.4624,156.6632 291.1224,149.4832 297.0984,143.5192 C303.0704,137.5592 310.1344,132.9112 318.2784,129.5672 C326.4264,126.2272 335.2024,124.5552 344.6144,124.5552 C354.0264,124.5552 362.5824,126.0912 370.2744,129.1592 C377.9704,132.2352 384.4864,136.6592 389.8304,142.4392 C395.1664,148.2192 399.2864,155.2192 402.1824,163.4352 C405.0784,171.6592 406.5264,180.9112 406.5264,191.2072 Z" id="Stroke-13" stroke="#6D6E70" stroke-width="2"></path>
            <path d="M552.2976,192.1572 C552.2976,186.2132 551.3896,180.4492 549.5896,174.8692 C547.7816,169.2852 545.0696,164.3332 541.4616,160.0132 C537.8456,155.6892 533.3736,152.2652 528.0496,149.7412 C522.7176,147.2212 516.5336,145.9572 509.4856,145.9572 C502.9856,145.9572 497.0656,147.2212 491.7376,149.7412 C486.4096,152.2652 481.8496,155.6892 478.0576,160.0132 C474.2616,164.3332 471.3256,169.2852 469.2496,174.8692 C467.1736,180.4492 466.1336,186.3052 466.1336,192.4252 C466.1336,198.5572 467.1736,204.4092 469.2496,209.9892 C471.3256,215.5732 474.2616,220.4812 478.0576,224.7172 C481.8496,228.9452 486.4096,232.3212 491.7376,234.8452 C497.0656,237.3692 502.9856,238.6252 509.4856,238.6252 C516.5336,238.6252 522.7176,237.3212 528.0496,234.7092 C533.3736,232.0972 537.8456,228.6292 541.4616,224.3052 C545.0696,219.9852 547.7816,215.0332 549.5896,209.4452 C551.3896,203.8692 552.2976,198.1012 552.2976,192.1572 L552.2976,192.1572 Z M466.9496,236.1892 L466.9496,256.5092 L442.2896,256.5092 L442.2896,51.6692 L467.7616,51.6692 L467.7616,147.3132 L468.5736,147.3132 C472.8936,140.9932 478.9336,135.6212 486.6816,131.1932 C494.4296,126.7652 503.6176,124.5572 514.2496,124.5572 C523.8016,124.5572 532.4936,126.2732 540.3336,129.7052 C548.1696,133.1372 554.9256,137.9212 560.6056,144.0652 C566.2776,150.2052 570.6456,157.3892 573.7136,165.6012 C576.7776,173.8252 578.3096,182.6292 578.3096,192.0212 C578.3096,201.4132 576.7776,210.2692 573.7136,218.5732 C570.6456,226.8892 566.3256,234.1132 560.7376,240.2492 C555.1496,246.3972 548.3936,251.2252 540.4696,254.7452 C532.5416,258.2692 523.6216,260.0332 513.7096,260.0332 C504.5176,260.0332 495.7776,258.0012 487.4896,253.9332 C479.2016,249.8732 472.5336,243.9532 467.4896,236.1892 L466.9496,236.1892 Z" id="Fill-15" fill="#6D6E70"></path>
            <path d="M552.2976,192.1572 C552.2976,186.2132 551.3896,180.4492 549.5896,174.8692 C547.7816,169.2852 545.0696,164.3332 541.4616,160.0132 C537.8456,155.6892 533.3736,152.2652 528.0496,149.7412 C522.7176,147.2212 516.5336,145.9572 509.4856,145.9572 C502.9856,145.9572 497.0656,147.2212 491.7376,149.7412 C486.4096,152.2652 481.8496,155.6892 478.0576,160.0132 C474.2616,164.3332 471.3256,169.2852 469.2496,174.8692 C467.1736,180.4492 466.1336,186.3052 466.1336,192.4252 C466.1336,198.5572 467.1736,204.4092 469.2496,209.9892 C471.3256,215.5732 474.2616,220.4812 478.0576,224.7172 C481.8496,228.9452 486.4096,232.3212 491.7376,234.8452 C497.0656,237.3692 502.9856,238.6252 509.4856,238.6252 C516.5336,238.6252 522.7176,237.3212 528.0496,234.7092 C533.3736,232.0972 537.8456,228.6292 541.4616,224.3052 C545.0696,219.9852 547.7816,215.0332 549.5896,209.4452 C551.3896,203.8692 552.2976,198.1012 552.2976,192.1572 Z M466.9496,236.1892 L466.9496,256.5092 L442.2896,256.5092 L442.2896,51.6692 L467.7616,51.6692 L467.7616,147.3132 L468.5736,147.3132 C472.8936,140.9932 478.9336,135.6212 486.6816,131.1932 C494.4296,126.7652 503.6176,124.5572 514.2496,124.5572 C523.8016,124.5572 532.4936,126.2732 540.3336,129.7052 C548.1696,133.1372 554.9256,137.9212 560.6056,144.0652 C566.2776,150.2052 570.6456,157.3892 573.7136,165.6012 C576.7776,173.8252 578.3096,182.6292 578.3096,192.0212 C578.3096,201.4132 576.7776,210.2692 573.7136,218.5732 C570.6456,226.8892 566.3256,234.1132 560.7376,240.2492 C555.1496,246.3972 548.3936,251.2252 540.4696,254.7452 C532.5416,258.2692 523.6216,260.0332 513.7096,260.0332 C504.5176,260.0332 495.7776,258.0012 487.4896,253.9332 C479.2016,249.8732 472.5336,243.9532 467.4896,236.1892 L466.9496,236.1892 Z" id="Stroke-17" stroke="#6D6E70" stroke-width="2"></path>
            <path d="M704.5692,256.5088 C704.2052,253.2608 703.9332,249.5968 703.7572,245.5368 C703.5732,241.4688 703.4852,238.0848 703.4852,235.3768 L702.9452,235.3768 C699.6932,242.2448 694.2292,248.0688 686.5532,252.8528 C678.8732,257.6328 670.3372,260.0328 660.9452,260.0328 C652.6372,260.0328 645.4572,258.6768 639.4052,255.9648 C633.3492,253.2608 628.3852,249.5088 624.5012,244.7248 C620.6172,239.9368 617.7292,234.3848 615.8332,228.0608 C613.9372,221.7408 612.9852,214.9648 612.9852,207.7368 L612.9852,128.0768 L638.4572,128.0768 L638.4572,199.0688 C638.4572,204.3088 638.8652,209.3208 639.6772,214.1008 C640.4892,218.8928 641.9812,223.0928 644.1492,226.7048 C646.3172,230.3208 649.2972,233.2088 653.0892,235.3768 C656.8812,237.5448 661.7572,238.6248 667.7212,238.6248 C678.0172,238.6248 686.3212,234.7888 692.6492,227.1088 C698.9692,219.4328 702.1332,209.1848 702.1332,196.3568 L702.1332,128.0768 L727.6012,128.0768 L727.6012,228.8728 C727.6012,232.3048 727.6892,236.7288 727.8732,242.1488 C728.0492,247.5688 728.3212,252.3568 728.6852,256.5088 L704.5692,256.5088 Z" id="Fill-19" fill="#6D6E70"></path>
            <path d="M704.5692,256.5088 C704.2052,253.2608 703.9332,249.5968 703.7572,245.5368 C703.5732,241.4688 703.4852,238.0848 703.4852,235.3768 L702.9452,235.3768 C699.6932,242.2448 694.2292,248.0688 686.5532,252.8528 C678.8732,257.6328 670.3372,260.0328 660.9452,260.0328 C652.6372,260.0328 645.4572,258.6768 639.4052,255.9648 C633.3492,253.2608 628.3852,249.5088 624.5012,244.7248 C620.6172,239.9368 617.7292,234.3848 615.8332,228.0608 C613.9372,221.7408 612.9852,214.9648 612.9852,207.7368 L612.9852,128.0768 L638.4572,128.0768 L638.4572,199.0688 C638.4572,204.3088 638.8652,209.3208 639.6772,214.1008 C640.4892,218.8928 641.9812,223.0928 644.1492,226.7048 C646.3172,230.3208 649.2972,233.2088 653.0892,235.3768 C656.8812,237.5448 661.7572,238.6248 667.7212,238.6248 C678.0172,238.6248 686.3212,234.7888 692.6492,227.1088 C698.9692,219.4328 702.1332,209.1848 702.1332,196.3568 L702.1332,128.0768 L727.6012,128.0768 L727.6012,228.8728 C727.6012,232.3048 727.6892,236.7288 727.8732,242.1488 C728.0492,247.5688 728.3212,252.3568 728.6852,256.5088 L704.5692,256.5088 Z" id="Stroke-21" stroke="#6D6E70" stroke-width="2"></path>
            <mask id="mask-2" fill="white">
                <use xlink:href="#path-1"></use>
            </mask>
            <g id="Clip-24"></g>
            <polygon id="Fill-23" fill="#6D6E70" mask="url(#mask-2)" points="772.304 256.5076 797.776 256.5076 797.776 51.6676 772.304 51.6676"></polygon>
            <polygon id="Stroke-25" stroke="#6D6E70" stroke-width="2" mask="url(#mask-2)" points="772.304 256.5076 797.776 256.5076 797.776 51.6676 772.304 51.6676"></polygon>
            <path d="M915.9088,195.2744 C909.5848,195.2744 903.0408,195.5424 896.2648,196.0864 C889.4928,196.6304 883.3488,197.7104 877.8408,199.3384 C872.3288,200.9624 867.7688,203.4024 864.1568,206.6544 C860.5408,209.9024 858.7368,214.2384 858.7368,219.6584 C858.7368,223.4544 859.5048,226.6144 861.0408,229.1424 C862.5728,231.6744 864.6048,233.7464 867.1368,235.3744 C869.6648,237.0024 872.4648,238.1304 875.5368,238.7624 C878.6048,239.3944 881.7688,239.7064 885.0208,239.7064 C896.9408,239.7064 906.1088,236.1464 912.5208,229.0104 C918.9328,221.8704 922.1408,212.8824 922.1408,202.0464 L922.1408,195.2744 L915.9088,195.2744 Z M922.1408,173.3264 C922.1408,163.7544 919.2488,156.6624 913.4728,152.0544 C907.6888,147.4504 900.0128,145.1464 890.4408,145.1464 C883.2128,145.1464 876.3928,146.5464 869.9848,149.3464 C863.5688,152.1504 858.1968,155.7144 853.8608,160.0464 L840.3128,143.7904 C846.6328,137.8304 854.3568,133.1384 863.4808,129.7024 C872.5968,126.2744 882.4008,124.5544 892.8768,124.5544 C902.0888,124.5544 910.0808,125.8664 916.8568,128.4824 C923.6328,131.1024 929.1848,134.6744 933.5208,139.1864 C937.8568,143.7024 941.1088,149.0304 943.2768,155.1744 C945.4448,161.3144 946.5248,167.9064 946.5248,174.9504 L946.5248,231.0384 C946.5248,235.3744 946.6608,239.9384 946.9328,244.7224 C947.2048,249.5104 947.7008,253.4384 948.4248,256.5104 L925.3928,256.5104 C923.9448,250.3664 923.2248,244.2264 923.2248,238.0824 L922.4128,238.0824 C917.7128,244.9504 911.7968,250.2784 904.6648,254.0704 C897.5248,257.8624 889.0848,259.7584 879.3288,259.7584 C874.2688,259.7584 868.9888,259.0824 863.4808,257.7264 C857.9688,256.3704 852.9528,254.1664 848.4408,251.0904 C843.9248,248.0224 840.1768,243.9544 837.1968,238.8944 C834.2168,233.8424 832.7288,227.6104 832.7288,220.1984 C832.7288,210.4464 835.3408,202.7224 840.5848,197.0344 C845.8208,191.3464 852.6848,187.0104 861.1768,184.0264 C869.6648,181.0464 879.2368,179.1104 889.8968,178.2024 C900.5528,177.3024 911.3048,176.8504 922.1408,176.8504 L922.1408,173.3264 Z" id="Fill-26" fill="#6D6E70" mask="url(#mask-2)"></path>
            <path d="M915.9088,195.2744 C909.5848,195.2744 903.0408,195.5424 896.2648,196.0864 C889.4928,196.6304 883.3488,197.7104 877.8408,199.3384 C872.3288,200.9624 867.7688,203.4024 864.1568,206.6544 C860.5408,209.9024 858.7368,214.2384 858.7368,219.6584 C858.7368,223.4544 859.5048,226.6144 861.0408,229.1424 C862.5728,231.6744 864.6048,233.7464 867.1368,235.3744 C869.6648,237.0024 872.4648,238.1304 875.5368,238.7624 C878.6048,239.3944 881.7688,239.7064 885.0208,239.7064 C896.9408,239.7064 906.1088,236.1464 912.5208,229.0104 C918.9328,221.8704 922.1408,212.8824 922.1408,202.0464 L922.1408,195.2744 L915.9088,195.2744 Z M922.1408,173.3264 C922.1408,163.7544 919.2488,156.6624 913.4728,152.0544 C907.6888,147.4504 900.0128,145.1464 890.4408,145.1464 C883.2128,145.1464 876.3928,146.5464 869.9848,149.3464 C863.5688,152.1504 858.1968,155.7144 853.8608,160.0464 L840.3128,143.7904 C846.6328,137.8304 854.3568,133.1384 863.4808,129.7024 C872.5968,126.2744 882.4008,124.5544 892.8768,124.5544 C902.0888,124.5544 910.0808,125.8664 916.8568,128.4824 C923.6328,131.1024 929.1848,134.6744 933.5208,139.1864 C937.8568,143.7024 941.1088,149.0304 943.2768,155.1744 C945.4448,161.3144 946.5248,167.9064 946.5248,174.9504 L946.5248,231.0384 C946.5248,235.3744 946.6608,239.9384 946.9328,244.7224 C947.2048,249.5104 947.7008,253.4384 948.4248,256.5104 L925.3928,256.5104 C923.9448,250.3664 923.2248,244.2264 923.2248,238.0824 L922.4128,238.0824 C917.7128,244.9504 911.7968,250.2784 904.6648,254.0704 C897.5248,257.8624 889.0848,259.7584 879.3288,259.7584 C874.2688,259.7584 868.9888,259.0824 863.4808,257.7264 C857.9688,256.3704 852.9528,254.1664 848.4408,251.0904 C843.9248,248.0224 840.1768,243.9544 837.1968,238.8944 C834.2168,233.8424 832.7288,227.6104 832.7288,220.1984 C832.7288,210.4464 835.3408,202.7224 840.5848,197.0344 C845.8208,191.3464 852.6848,187.0104 861.1768,184.0264 C869.6648,181.0464 879.2368,179.1104 889.8968,178.2024 C900.5528,177.3024 911.3048,176.8504 922.1408,176.8504 L922.1408,173.3264 Z" id="Stroke-27" stroke="#6D6E70" stroke-width="2" mask="url(#mask-2)"></path>
        </g>
    </g>
</svg>