<?xml version="1.0" encoding="UTF-8"?>
<svg width="582px" height="217px" viewBox="0 0 582 217" version="1.1" xmlns="http://www.w3.org/2000/svg" xmlns:xlink="http://www.w3.org/1999/xlink">
    <g id="Page-1" stroke="none" stroke-width="1" fill="none" fill-rule="evenodd">
        <g id="Lost404" transform="translate(-430.000000, -337.000000)">
            <g id="mainContent" transform="translate(430.000000, 337.000000)">
                <g id="404">
                    <g id="Group">
                        <g id="Group-2">
                            <path d="M161.432617,171.615234 L135.651367,171.615234 L135.651367,216 L91.4130859,216 L91.4130859,171.615234 L0.0068359375,171.615234 L0.0068359375,140.121094 L93.9033203,1.83984375 L135.651367,1.83984375 L135.651367,136.458984 L161.432617,136.458984 L161.432617,171.615234 Z M91.4130859,136.458984 L91.4130859,100.130859 C91.4130859,94.0761416 91.6572241,85.287167 92.1455078,73.7636719 C92.6337915,62.2401768 93.0244126,55.5507905 93.3173828,53.6953125 L92.1455078,53.6953125 C88.5322085,61.703165 84.1865488,69.5155869 79.1083984,77.1328125 L39.8505859,136.458984 L91.4130859,136.458984 Z" id="4left" fill="#f4f4f4"></path>
                            <path d="M581.932617,171.615234 L556.151367,171.615234 L556.151367,216 L511.913086,216 L511.913086,171.615234 L420.506836,171.615234 L420.506836,140.121094 L514.40332,1.83984375 L556.151367,1.83984375 L556.151367,136.458984 L581.932617,136.458984 L581.932617,171.615234 Z M511.913086,136.458984 L511.913086,100.130859 C511.913086,94.0761416 512.157224,85.287167 512.645508,73.7636719 C513.133792,62.2401768 513.524413,55.5507905 513.817383,53.6953125 L512.645508,53.6953125 C509.032208,61.703165 504.686549,69.5155869 499.608398,77.1328125 L460.350586,136.458984 L511.913086,136.458984 Z" id="4right" fill="#f4f4f4"></path>
                            <ellipse id="0" stroke="#f4f4f4" stroke-width="40" cx="291" cy="108.5" rx="89" ry="88.5"></ellipse>
                        </g>
                    </g>
                </g>
            </g>
        </g>
    </g>
</svg>
